# Blender v2.78 (sub 0) OBJ File: ''
# www.blender.org
o ddcontroller_Untitled
v 0.001690 0.000200 -0.003953
v 0.001516 0.000200 -0.004375
v 0.001237 0.000200 -0.004737
v 0.000875 0.000200 -0.005016
v 0.000453 0.000200 -0.005190
v 0.000263 -0.001407 -0.004375
v 0.000215 -0.001149 -0.004737
v -0.000875 0.000200 -0.005016
v -0.001237 0.000200 -0.004737
v 0.000152 -0.000813 -0.005016
v 0.000079 -0.000421 -0.005190
v -0.001750 0.000200 -0.003500
v -0.001750 0.000200 0.003500
v -0.001690 0.000200 0.003953
v -0.001516 0.000200 0.004375
v -0.000079 -0.000421 0.005190
v -0.000152 -0.000812 0.005016
v -0.000453 0.000200 0.005190
v -0.000215 -0.001149 0.004737
v 0.000453 0.000200 0.005190
v 0.000875 0.000200 0.005016
v 0.001237 0.000200 0.004737
v -0.000263 -0.001407 0.004375
v -0.000294 -0.001570 0.003953
v -0.000304 -0.001625 0.003500
v -0.000304 -0.001625 -0.003500
v -0.000294 -0.001570 -0.003953
v -0.000263 -0.001407 -0.004375
v 0.001237 0.000000 -0.004737
v 0.000875 0.000000 -0.005016
v 0.000453 0.000000 -0.005190
v -0.000000 0.000000 -0.005250
v -0.000215 -0.001149 -0.004737
v -0.000875 0.000000 -0.005016
v -0.000152 -0.000813 -0.005016
v -0.001516 0.000000 -0.004375
v -0.001690 0.000000 -0.003953
v -0.001750 0.000000 -0.003500
v -0.001750 -0.000000 0.003500
v -0.000079 -0.000421 -0.005190
v -0.000226 -0.000370 0.005190
v -0.001237 -0.000000 0.004737
v -0.000875 -0.000000 0.005016
v -0.000437 -0.000715 0.005016
v 0.000000 -0.000000 0.005250
v -0.000619 -0.001010 0.004737
v 0.000875 -0.000000 0.005016
v -0.000758 -0.001238 0.004375
v -0.000845 -0.001380 0.003953
v -0.000875 -0.001429 0.003500
v -0.000875 -0.001429 -0.003500
v -0.000845 -0.001380 -0.003953
v -0.000758 -0.001238 -0.004375
v -0.000619 -0.001010 -0.004737
v -0.000437 -0.000715 -0.005016
v -0.000226 -0.000370 -0.005190
v -0.000347 -0.000275 0.005190
v -0.000000 0.000200 -0.005250
v -0.000453 0.000200 -0.005190
v -0.000670 -0.000530 0.005016
v -0.000948 -0.000750 0.004737
v -0.001516 0.000200 -0.004375
v -0.001690 0.000200 -0.003953
v -0.001161 -0.000919 0.004375
v -0.001295 -0.001025 0.003953
v -0.001341 -0.001061 0.003500
v -0.001341 -0.001061 -0.003500
v -0.001237 0.000200 0.004737
v -0.000875 0.000200 0.005016
v -0.001295 -0.001025 -0.003953
v 0.000000 0.000200 0.005250
v -0.001161 -0.000919 -0.004375
v -0.000948 -0.000750 -0.004737
v -0.000670 -0.000530 -0.005016
v 0.001516 0.000200 0.004375
v 0.001690 0.000200 0.003953
v 0.001750 0.000200 0.003500
v 0.001750 0.000200 -0.003500
v -0.000347 -0.000275 -0.005190
v -0.000426 -0.000146 0.005190
v -0.000453 0.000000 0.005190
v -0.000822 -0.000282 0.005016
v -0.001163 -0.000399 0.004737
v -0.001516 0.000000 0.004375
v -0.001690 0.000000 0.003953
v -0.001424 -0.000489 0.004375
v -0.001588 -0.000545 0.003953
v -0.001644 -0.000564 0.003500
v -0.001644 -0.000564 -0.003500
v -0.001237 -0.000000 -0.004737
v -0.001588 -0.000545 -0.003953
v -0.000453 -0.000000 -0.005190
v 0.000453 0.000000 0.005190
v -0.001424 -0.000489 -0.004375
v 0.001237 0.000000 0.004737
v 0.001516 0.000000 0.004375
v 0.001690 0.000000 0.003953
v 0.001750 0.000000 0.003500
v 0.001750 -0.000000 -0.003500
v 0.001690 -0.000000 -0.003953
v 0.001516 -0.000000 -0.004375
v -0.001163 -0.000399 -0.004737
v -0.000822 -0.000282 -0.005016
v -0.000426 -0.000146 -0.005190
v 0.000426 -0.000146 0.005190
v 0.000822 -0.000282 0.005016
v 0.001163 -0.000399 0.004737
v 0.001424 -0.000489 0.004375
v 0.001588 -0.000545 0.003953
v 0.001644 -0.000564 0.003500
v 0.001644 -0.000564 -0.003500
v 0.001588 -0.000545 -0.003953
v 0.001424 -0.000489 -0.004375
v 0.001163 -0.000399 -0.004737
v 0.000822 -0.000282 -0.005016
v 0.000426 -0.000146 -0.005190
v 0.000347 -0.000275 0.005190
v 0.000670 -0.000530 0.005016
v 0.000948 -0.000750 0.004737
v 0.001161 -0.000919 0.004375
v 0.001295 -0.001025 0.003953
v 0.001341 -0.001061 0.003500
v 0.001341 -0.001061 -0.003500
v 0.001295 -0.001025 -0.003953
v 0.001161 -0.000919 -0.004375
v 0.000948 -0.000750 -0.004737
v 0.000670 -0.000530 -0.005016
v 0.000347 -0.000275 -0.005190
v 0.000226 -0.000370 0.005190
v 0.000437 -0.000715 0.005016
v 0.000619 -0.001010 0.004737
v 0.000758 -0.001238 0.004375
v 0.000845 -0.001380 0.003953
v 0.000875 -0.001429 0.003500
v 0.000875 -0.001429 -0.003500
v 0.000845 -0.001380 -0.003953
v 0.000758 -0.001238 -0.004375
v 0.000619 -0.001010 -0.004737
v 0.000437 -0.000715 -0.005016
v 0.000226 -0.000370 -0.005190
v 0.000079 -0.000421 0.005190
v 0.000152 -0.000812 0.005016
v 0.000215 -0.001149 0.004737
v 0.000263 -0.001407 0.004375
v 0.000294 -0.001570 0.003953
v 0.000304 -0.001625 0.003500
v 0.000304 -0.001625 -0.003500
v 0.000294 -0.001570 -0.003953
vt 0.3062 0.1999
vt 0.3113 0.2389
vt 0.0095 0.2389
vt 0.5405 0.0749
vt 0.5600 0.1068
vt 0.5301 0.0831
vt 0.0146 0.1999
vt 0.0537 0.1322
vt 0.2359 0.1082
vt 0.2671 0.1322
vt 0.7885 0.0706
vt 0.8013 0.0749
vt 0.7817 0.1068
vt 0.2671 0.9494
vt 0.2359 0.9734
vt 0.0537 0.9494
vt 0.0297 0.1635
vt 0.2911 0.1635
vt 0.3062 0.8818
vt 0.0146 0.8818
vt 0.0095 0.8427
vt 0.4003 0.8427
vt 0.3516 0.8427
vt 0.3516 0.2389
vt 0.4858 0.8817
vt 0.4471 0.8817
vt 0.4431 0.8427
vt 0.4934 0.9181
vt 0.4586 0.9181
vt 0.2911 0.9182
vt 0.0297 0.9182
vt 0.3113 0.8427
vt 0.5054 0.9494
vt 0.4770 0.9494
vt 0.5223 0.0452
vt 0.5022 0.0611
vt 0.4783 0.0421
vt 0.6704 0.1998
vt 0.6316 0.1998
vt 0.6241 0.1634
vt 0.7949 0.0368
vt 0.8195 0.0452
vt 0.8003 0.0077
vt 0.8351 0.0197
vt 0.3344 0.9181
vt 0.3344 0.8817
vt 0.3516 0.8817
vt 0.3344 0.9494
vt 0.3516 0.9181
vt 0.4846 0.1240
vt 0.4533 0.1240
vt 0.4533 0.1068
vt 0.5210 0.1240
vt 0.4846 0.1068
vt 0.5600 0.1240
vt 0.5210 0.1068
vt 0.5991 0.1240
vt 0.6355 0.1240
vt 0.5991 0.1068
vt 0.6668 0.1240
vt 0.6355 0.1068
vt 0.7831 0.9182
vt 0.7831 0.9494
vt 0.7658 0.9494
vt 0.7831 0.8817
vt 0.7658 0.9182
vt 0.7831 0.8427
vt 0.7658 0.8817
vt 0.7831 0.2389
vt 0.7658 0.8427
vt 0.7831 0.1999
vt 0.7658 0.2389
vt 0.7831 0.1635
vt 0.7658 0.1999
vt 0.7831 0.1322
vt 0.7658 0.1635
vt 0.7063 0.1241
vt 0.6750 0.1241
vt 0.6750 0.1068
vt 0.7427 0.1241
vt 0.7063 0.1068
vt 0.7817 0.1241
vt 0.7427 0.1068
vt 0.8208 0.1241
vt 0.8572 0.1241
vt 0.8208 0.1068
vt 0.8885 0.1241
vt 0.8572 0.1068
vt 0.3344 0.1634
vt 0.3344 0.1322
vt 0.3516 0.1322
vt 0.3344 0.1998
vt 0.3516 0.1634
vt 0.3344 0.2389
vt 0.3516 0.1998
vt 0.3344 0.8427
vt 0.3986 0.8817
vt 0.5360 0.1634
vt 0.4934 0.1634
vt 0.5054 0.1322
vt 0.5334 0.1998
vt 0.4858 0.1998
vt 0.5325 0.2389
vt 0.4833 0.2389
vt 0.5325 0.8427
vt 0.4833 0.8427
vt 0.5334 0.8817
vt 0.6744 0.2389
vt 0.6342 0.2389
vt 0.5360 0.9181
vt 0.5402 0.9494
vt 0.5469 0.0367
vt 0.5067 0.0196
vt 0.5533 0.0705
vt 0.8184 0.0942
vt 0.3938 0.9181
vt 0.7750 0.0706
vt 0.7686 0.0368
vt 0.7632 0.0077
vt 0.5814 0.1634
vt 0.5402 0.1322
vt 0.5841 0.1998
vt 0.6744 0.8427
vt 0.6342 0.8427
vt 0.6310 0.0825
vt 0.6179 0.0611
vt 0.6418 0.0421
vt 0.5967 0.0942
vt 0.5900 0.0831
vt 0.5849 0.2389
vt 0.5849 0.8427
vt 0.8527 0.0825
vt 0.5841 0.8817
vt 0.5814 0.9181
vt 0.5773 0.9494
vt 0.6589 0.9181
vt 0.6241 0.9181
vt 0.6316 0.8817
vt 0.7450 0.0942
vt 0.7108 0.0825
vt 0.6815 0.0724
vt 0.7237 0.1635
vt 0.7314 0.1322
vt 0.7188 0.1999
vt 0.7172 0.2389
vt 0.7172 0.8427
vt 0.5731 0.0367
vt 0.5415 0.0077
vt 0.5668 0.0705
vt 0.7622 0.0749
vt 0.7440 0.0452
vt 0.6405 0.9494
vt 0.6121 0.9494
vt 0.7188 0.8817
vt 0.7237 0.9182
vt 0.7314 0.9494
vt 0.6603 0.0724
vt 0.7284 0.0197
vt 0.5773 0.1322
vt 0.3860 0.9494
vt 0.3516 0.9494
vt 0.4891 0.0825
vt 0.5233 0.0942
vt 0.5978 0.0452
vt 0.6134 0.0196
vt 0.5796 0.0749
vt 0.7518 0.0832
vt 0.7239 0.0611
vt 0.7000 0.0421
vt 0.8820 0.0724
vt 0.8885 0.1068
vt 0.3938 0.1634
vt 0.3986 0.1998
vt 0.4400 0.1998
vt 0.4431 0.2389
vt 0.4003 0.2389
vt 0.6866 0.1635
vt 0.7012 0.1322
vt 0.6775 0.1999
vt 0.6775 0.8817
vt 0.6866 0.9182
vt 0.4400 0.8817
vt 0.8117 0.0832
vt 0.4308 0.9181
vt 0.4163 0.9494
vt 0.4597 0.0724
vt 0.6704 0.8817
vt 0.5786 0.0077
vt 0.7012 0.9494
vt 0.8396 0.0611
vt 0.8635 0.0422
vt 0.4586 0.1634
vt 0.4770 0.1322
vt 0.6589 0.1634
vt 0.6121 0.1322
vt 0.4471 0.1998
vt 0.4308 0.1634
vt 0.3860 0.1322
vt 0.0849 0.9734
vt 0.1995 0.9885
vt 0.4163 0.1322
vt 0.1604 0.9936
vt 0.1213 0.9885
vt 0.6668 0.1068
vt 0.7658 0.1322
vt 0.6405 0.1322
vt 0.0849 0.1082
vt 0.1995 0.0931
vt 0.1213 0.0931
vt 0.1604 0.0880
vn 0.6717 0.7098 0.2120
vn 0.8284 0.5554 0.0725
vn -0.5987 0.8006 0.0261
vn 0.1531 -0.2524 -0.9554
vn -0.0110 -0.0679 -0.9976
vn 0.2258 -0.1821 -0.9570
vn -0.6877 0.7098 0.1523
vn -0.5194 0.7098 0.4758
vn 0.3251 0.7098 0.6249
vn 0.4758 0.7098 0.5194
vn 0.0357 -0.2971 0.9542
vn 0.1296 -0.2666 0.9551
vn 0.0110 -0.0679 0.9976
vn 0.5194 0.7098 -0.4758
vn 0.3786 0.7098 -0.5940
vn -0.4758 0.7098 -0.5194
vn -0.6249 0.7098 0.3251
vn 0.5940 0.7098 0.3786
vn 0.6877 0.7098 -0.1523
vn -0.6717 0.7098 -0.2120
vn -0.7037 0.7078 -0.0616
vn 0.9315 -0.3580 -0.0645
vn 0.9920 -0.0920 -0.0868
vn 0.9948 -0.0922 0.0434
vn 0.4658 -0.8493 -0.2483
vn 0.7251 -0.6406 -0.2528
vn 0.7470 -0.6618 -0.0634
vn 0.4223 -0.7665 -0.4839
vn 0.6540 -0.5755 -0.4910
vn 0.6249 0.7098 -0.3251
vn -0.5940 0.7098 -0.3786
vn 0.7058 0.7078 -0.0308
vn 0.3502 -0.6315 -0.6918
vn 0.5385 -0.4711 -0.6987
vn 0.2526 -0.4499 -0.8566
vn 0.3847 -0.3329 -0.8609
vn -0.7251 -0.6406 0.2528
vn -0.4658 -0.8493 0.2483
vn -0.4223 -0.7665 0.4839
vn 0.0792 -0.5146 0.8537
vn 0.2413 -0.4564 0.8564
vn 0.1144 -0.7171 0.6875
vn 0.3412 -0.6363 0.6918
vn 0.9499 -0.0881 -0.2998
vn 0.8406 -0.0781 -0.5359
vn 0.6740 -0.0628 -0.7361
vn 0.2120 0.7098 -0.6718
vn 0.4610 -0.0430 -0.8863
vn 0.0415 0.3184 -0.9470
vn 0.2332 -0.0193 -0.9722
vn -0.1795 0.5576 -0.8105
vn -0.3251 0.7098 -0.6249
vn -0.3007 -0.0281 -0.9533
vn -0.5367 -0.0500 -0.8423
vn -0.7356 -0.0684 -0.6739
vn -0.8841 -0.0821 -0.4601
vn -0.9724 -0.0902 -0.2154
vn -0.9948 -0.0922 -0.0434
vn -0.9920 -0.0920 0.0868
vn -0.9499 -0.0881 0.2998
vn -0.8406 -0.0781 0.5359
vn -0.3786 0.7098 0.5940
vn -0.6740 -0.0628 0.7361
vn -0.2498 0.5576 0.7916
vn -0.4610 -0.0430 0.8863
vn -0.0415 0.3184 0.9470
vn -0.2332 -0.0193 0.9722
vn 0.1523 0.7098 0.6878
vn 0.3007 -0.0281 0.9533
vn 0.5367 -0.0500 0.8423
vn 0.7356 -0.0685 0.6739
vn 0.8841 -0.0821 0.4601
vn 0.9724 -0.0902 0.2154
vn 0.9027 -0.3451 -0.2570
vn 0.1410 -0.8661 0.4797
vn 0.4161 -0.7696 0.4843
vn 0.1578 -0.9563 0.2459
vn 0.4627 -0.8508 0.2489
vn 0.1640 -0.9845 0.0620
vn 0.4782 -0.8760 0.0628
vn 0.1645 -0.9844 -0.0619
vn 0.4788 -0.8757 -0.0622
vn 0.1611 -0.9559 -0.2457
vn -0.7470 -0.6618 0.0634
vn -0.4788 -0.8757 0.0622
vn 0.1476 -0.8650 -0.4795
vn 0.1242 -0.7155 -0.6875
vn 0.0917 -0.5125 -0.8538
vn 0.0623 -0.2922 -0.9543
vn 0.2620 -0.1164 0.9580
vn 0.8110 -0.3080 -0.4975
vn -0.0623 -0.2922 0.9543
vn -0.0917 -0.5125 0.8538
vn -0.1242 -0.7155 0.6875
vn -0.1476 -0.8650 0.4795
vn -0.1611 -0.9559 0.2457
vn -0.7466 -0.6622 -0.0640
vn -0.4782 -0.8760 -0.0628
vn -0.4664 -0.1873 -0.8645
vn -0.3760 -0.3433 -0.8607
vn -0.5313 -0.4791 -0.6987
vn -0.2620 -0.1164 -0.9580
vn -0.2082 -0.2039 -0.9566
vn -0.1644 -0.9845 0.0614
vn -0.1640 -0.9845 -0.0620
vn 0.4664 -0.1873 0.8645
vn -0.1578 -0.9563 -0.2460
vn -0.1410 -0.8661 -0.4797
vn -0.1144 -0.7171 -0.6875
vn -0.6490 -0.5809 -0.4913
vn -0.4162 -0.7696 -0.4842
vn -0.4627 -0.8508 -0.2489
vn -0.2714 -0.0894 0.9583
vn -0.4711 -0.1742 0.8647
vn -0.6639 -0.2498 0.7048
vn -0.8110 -0.3080 0.4975
vn -0.9027 -0.3451 0.2570
vn -0.9315 -0.3580 0.0645
vn -0.9313 -0.3584 -0.0651
vn -0.0792 -0.5146 -0.8537
vn -0.0357 -0.2971 -0.9542
vn -0.1531 -0.2524 0.9554
vn -0.2526 -0.4499 0.8566
vn -0.3412 -0.6363 -0.6919
vn -0.9011 -0.3488 -0.2575
vn -0.8080 -0.3152 -0.4977
vn -0.6599 -0.2602 -0.7048
vn -0.3502 -0.6315 0.6918
vn 0.6639 -0.2498 -0.7048
vn 0.4711 -0.1742 -0.8647
vn 0.2714 -0.0894 -0.9583
vn -0.2413 -0.4564 -0.8564
vn -0.1296 -0.2666 -0.9551
vn -0.2258 -0.1821 0.9570
vn -0.3847 -0.3329 0.8609
vn -0.5385 -0.4711 0.6987
vn 0.6599 -0.2602 0.7048
vn 0.8080 -0.3152 0.4977
vn 0.9011 -0.3488 0.2575
vn 0.7224 -0.6433 0.2535
vn 0.7466 -0.6622 0.0640
vn 0.9313 -0.3584 0.0651
vn -0.6540 -0.5755 0.4910
vn -0.7224 -0.6433 -0.2535
vn 0.2082 -0.2039 0.9566
vn 0.3760 -0.3433 0.8607
vn 0.5313 -0.4791 0.6987
vn 0.6490 -0.5809 0.4913
f 76/1/1 77/2/2 13/3/3
f 140/4/4 32/5/5 128/6/6
f 13/3/3 14/7/7 76/1/1
f 68/8/8 21/9/9 22/10/10
f 141/11/11 129/12/12 45/13/13
f 3/14/14 4/15/15 9/16/16
f 14/7/7 15/17/17 75/18/18
f 1/19/19 63/20/20 12/21/21
f 111/22/22 99/23/23 98/24/24
f 136/25/25 124/26/26 123/27/27
f 137/28/28 125/29/29 124/26/26
f 2/30/30 62/31/31 63/20/20
f 3/14/14 9/16/16 62/31/31
f 12/21/21 78/32/32 1/19/19
f 1/19/19 2/30/30 63/20/20
f 13/3/3 77/2/2 78/32/32
f 138/33/33 126/34/34 125/29/29
f 15/17/17 68/8/8 22/10/10
f 14/7/7 75/18/18 76/1/1
f 139/35/35 127/36/36 126/37/34
f 65/38/37 49/39/38 48/40/39
f 140/4/4 128/6/6 127/36/36
f 142/41/40 130/42/41 129/12/12
f 143/43/42 131/44/43 130/42/41
f 2/45/30 1/46/19 100/47/44
f 3/48/14 2/45/30 101/49/45
f 4/50/15 3/51/14 29/52/46
f 5/53/47 4/50/15 30/54/48
f 58/55/49 5/53/47 31/56/50
f 59/57/51 58/55/49 32/5/5
f 8/58/52 59/57/51 92/59/53
f 9/60/16 8/58/52 34/61/54
f 62/62/31 9/63/16 90/64/55
f 63/65/20 62/62/31 36/66/56
f 12/67/21 63/65/20 37/68/57
f 13/69/3 12/67/21 38/70/58
f 14/71/7 13/69/3 39/72/59
f 15/73/17 14/71/7 85/74/60
f 68/75/8 15/73/17 84/76/61
f 69/77/62 68/78/8 42/79/63
f 18/80/64 69/77/62 43/81/65
f 71/82/66 18/80/64 81/83/67
f 20/84/68 71/82/66 45/13/13
f 21/85/9 20/84/68 93/86/69
f 22/87/10 21/85/9 47/88/70
f 75/89/18 22/90/10 95/91/71
f 76/92/1 75/89/18 96/93/72
f 77/94/2 76/92/1 97/95/73
f 78/96/32 77/94/2 98/24/24
f 1/46/19 78/96/32 99/23/23
f 112/97/74 100/47/44 99/23/23
f 144/98/75 132/99/76 131/100/43
f 145/101/77 133/102/78 132/99/76
f 146/103/79 134/104/80 133/102/78
f 147/105/81 135/106/82 134/104/80
f 148/107/83 136/25/25 135/106/82
f 66/108/84 50/109/85 49/39/38
f 6/110/86 137/28/28 136/25/25
f 7/111/87 138/33/33 137/28/28
f 10/112/88 139/35/35 138/113/33
f 11/114/89 140/4/4 139/35/35
f 11/114/89 32/5/5 140/4/4
f 105/115/90 93/86/69 45/13/13
f 113/116/91 101/49/45 100/47/44
f 16/117/92 141/11/11 45/13/13
f 17/118/93 142/41/40 141/11/11
f 19/119/94 143/43/42 142/41/40
f 23/120/95 144/98/75 143/121/42
f 24/122/96 145/101/77 144/98/75
f 67/123/97 51/124/98 50/109/85
f 103/125/99 74/126/100 73/127/101
f 104/128/102 79/129/103 74/126/100
f 104/128/102 32/5/5 79/129/103
f 25/130/104 146/103/79 145/101/77
f 26/131/105 147/105/81 146/103/79
f 106/132/106 47/88/70 93/86/69
f 27/133/107 148/107/83 147/105/81
f 28/134/108 6/110/86 148/107/83
f 33/135/109 7/111/87 6/110/86
f 72/136/110 53/137/111 52/138/112
f 81/83/67 80/139/113 45/13/13
f 43/81/65 82/140/114 80/139/113
f 42/79/63 83/141/115 82/140/114
f 84/76/61 86/142/116 83/143/115
f 85/74/60 87/144/117 86/142/116
f 39/72/59 88/145/118 87/144/117
f 38/70/58 89/146/119 88/145/118
f 35/147/120 10/112/88 7/148/87
f 40/149/121 11/114/89 10/112/88
f 40/149/121 32/5/5 11/114/89
f 41/150/122 16/117/92 45/13/13
f 44/151/123 17/118/93 16/117/92
f 73/152/101 54/153/124 53/137/111
f 37/68/57 91/154/125 89/146/119
f 36/66/56 94/155/126 91/154/125
f 90/64/55 102/156/127 94/155/126
f 34/61/54 103/125/99 102/157/127
f 92/59/53 104/128/102 103/125/99
f 92/59/53 32/5/5 104/128/102
f 46/158/128 19/119/94 17/118/93
f 48/40/39 23/120/95 19/159/94
f 49/39/38 24/122/96 23/120/95
f 114/160/129 29/161/46 101/49/45
f 115/162/130 30/54/48 29/52/46
f 116/163/131 31/56/50 30/54/48
f 116/163/131 32/5/5 31/56/50
f 74/126/100 55/164/132 54/165/124
f 79/129/103 56/166/133 55/164/132
f 79/129/103 32/5/5 56/166/133
f 80/139/113 57/167/134 45/13/13
f 82/140/114 60/168/135 57/167/134
f 83/141/115 61/169/136 60/168/135
f 107/170/137 95/171/71 47/88/70
f 108/172/138 96/93/72 95/91/71
f 109/173/139 97/95/73 96/93/72
f 121/174/140 109/173/139 108/172/138
f 122/175/141 110/176/142 109/173/139
f 123/27/27 111/22/22 110/176/142
f 50/109/85 25/130/104 24/122/96
f 51/124/98 26/131/105 25/130/104
f 86/142/116 64/177/143 61/178/136
f 87/144/117 65/179/37 64/177/143
f 88/145/118 66/108/84 65/179/37
f 89/146/119 67/123/97 66/108/84
f 91/154/125 70/180/144 67/123/97
f 94/155/126 72/181/110 70/180/144
f 124/182/26 112/97/74 111/22/22
f 117/183/145 105/115/90 45/13/13
f 125/184/29 113/116/91 112/97/74
f 126/185/34 114/160/129 113/116/91
f 127/36/36 115/162/130 114/186/129
f 52/138/112 27/133/107 26/131/105
f 53/137/111 28/134/108 27/133/107
f 54/153/124 33/135/109 28/134/108
f 70/187/144 52/138/112 51/124/98
f 55/164/132 35/147/120 33/188/109
f 102/156/127 73/189/101 72/181/110
f 56/166/133 40/149/121 35/147/120
f 56/166/133 32/5/5 40/149/121
f 128/6/6 116/163/131 115/162/130
f 118/190/146 106/132/106 105/115/90
f 119/191/147 107/170/137 106/132/106
f 128/6/6 32/5/5 116/163/131
f 129/12/12 117/183/145 45/13/13
f 130/42/41 118/190/146 117/183/145
f 131/44/43 119/191/147 118/190/146
f 132/99/76 120/192/148 119/193/147
f 57/167/134 41/150/122 45/13/13
f 60/168/135 44/151/123 41/150/122
f 61/169/136 46/158/128 44/151/123
f 64/194/143 48/40/39 46/195/128
f 133/102/78 121/196/140 120/192/148
f 134/104/80 122/175/141 121/196/140
f 110/176/142 98/24/24 97/95/73
f 120/197/148 108/172/138 107/198/137
f 135/106/82 123/27/27 122/175/141
f 132/99/76 133/102/78 120/192/148
f 133/102/78 134/104/80 121/196/140
f 4/15/15 8/199/52 9/16/16
f 4/15/15 5/200/47 8/199/52
f 110/176/142 111/22/22 98/24/24
f 135/106/82 136/25/25 123/27/27
f 136/25/25 137/28/28 124/26/26
f 2/30/30 3/14/14 62/31/31
f 109/173/139 110/176/142 97/95/73
f 119/201/147 120/197/148 107/198/137
f 134/104/80 135/106/82 122/175/141
f 12/21/21 13/3/3 78/32/32
f 137/28/28 138/33/33 125/29/29
f 5/200/47 58/202/49 59/203/51
f 59/203/51 8/199/52 5/200/47
f 138/113/33 139/35/35 126/37/34
f 64/194/143 65/38/37 48/40/39
f 139/35/35 140/4/4 127/36/36
f 141/11/11 142/41/40 129/12/12
f 142/41/40 143/43/42 130/42/41
f 101/49/45 2/45/30 100/47/44
f 29/161/46 3/48/14 101/49/45
f 30/54/48 4/50/15 29/52/46
f 31/56/50 5/53/47 30/54/48
f 32/5/5 58/55/49 31/56/50
f 92/59/53 59/57/51 32/5/5
f 34/61/54 8/58/52 92/59/53
f 90/204/55 9/60/16 34/61/54
f 36/66/56 62/62/31 90/64/55
f 37/68/57 63/65/20 36/66/56
f 38/70/58 12/67/21 37/68/57
f 39/72/59 13/69/3 38/70/58
f 85/74/60 14/71/7 39/72/59
f 84/76/61 15/73/17 85/74/60
f 42/205/63 68/75/8 84/76/61
f 43/81/65 69/77/62 42/79/63
f 81/83/67 18/80/64 43/81/65
f 45/13/13 71/82/66 81/83/67
f 93/86/69 20/84/68 45/13/13
f 47/88/70 21/85/9 93/86/69
f 95/171/71 22/87/10 47/88/70
f 96/93/72 75/89/18 95/91/71
f 97/95/73 76/92/1 96/93/72
f 98/24/24 77/94/2 97/95/73
f 99/23/23 78/96/32 98/24/24
f 100/47/44 1/46/19 99/23/23
f 111/22/22 112/97/74 99/23/23
f 143/121/42 144/98/75 131/100/43
f 144/98/75 145/101/77 132/99/76
f 145/101/77 146/103/79 133/102/78
f 146/103/79 147/105/81 134/104/80
f 147/105/81 148/107/83 135/106/82
f 65/38/37 66/108/84 49/39/38
f 148/107/83 6/110/86 136/25/25
f 6/110/86 7/111/87 137/28/28
f 7/148/87 10/112/88 138/113/33
f 10/112/88 11/114/89 139/35/35
f 112/97/74 113/116/91 100/47/44
f 16/117/92 17/118/93 141/11/11
f 17/118/93 19/119/94 142/41/40
f 19/159/94 23/120/95 143/121/42
f 23/120/95 24/122/96 144/98/75
f 66/108/84 67/123/97 50/109/85
f 102/157/127 103/125/99 73/127/101
f 103/125/99 104/128/102 74/126/100
f 24/122/96 25/130/104 145/101/77
f 25/130/104 26/131/105 146/103/79
f 105/115/90 106/132/106 93/86/69
f 26/131/105 27/133/107 147/105/81
f 27/133/107 28/134/108 148/107/83
f 28/134/108 33/135/109 6/110/86
f 70/187/144 72/136/110 52/138/112
f 81/83/67 43/81/65 80/139/113
f 43/81/65 42/79/63 82/140/114
f 42/205/63 84/76/61 83/143/115
f 84/76/61 85/74/60 86/142/116
f 85/74/60 39/72/59 87/144/117
f 39/72/59 38/70/58 88/145/118
f 33/188/109 35/147/120 7/148/87
f 35/147/120 40/149/121 10/112/88
f 41/150/122 44/151/123 16/117/92
f 72/136/110 73/152/101 53/137/111
f 38/70/58 37/68/57 89/146/119
f 37/68/57 36/66/56 91/154/125
f 36/66/56 90/64/55 94/155/126
f 90/204/55 34/61/54 102/157/127
f 34/61/54 92/59/53 103/125/99
f 44/151/123 46/158/128 17/118/93
f 46/195/128 48/40/39 19/159/94
f 48/40/39 49/39/38 23/120/95
f 113/116/91 114/160/129 101/49/45
f 114/186/129 115/162/130 29/52/46
f 115/162/130 116/163/131 30/54/48
f 73/127/101 74/126/100 54/165/124
f 74/126/100 79/129/103 55/164/132
f 80/139/113 82/140/114 57/167/134
f 82/140/114 83/141/115 60/168/135
f 106/132/106 107/170/137 47/88/70
f 107/198/137 108/172/138 95/91/71
f 108/172/138 109/173/139 96/93/72
f 120/197/148 121/174/140 108/172/138
f 121/174/140 122/175/141 109/173/139
f 122/175/141 123/27/27 110/176/142
f 49/39/38 50/109/85 24/122/96
f 50/109/85 51/124/98 25/130/104
f 83/143/115 86/142/116 61/178/136
f 86/142/116 87/144/117 64/177/143
f 87/144/117 88/145/118 65/179/37
f 88/145/118 89/146/119 66/108/84
f 89/146/119 91/154/125 67/123/97
f 91/154/125 94/155/126 70/180/144
f 123/27/27 124/182/26 111/22/22
f 124/182/26 125/184/29 112/97/74
f 125/184/29 126/185/34 113/116/91
f 126/37/34 127/36/36 114/186/129
f 51/124/98 52/138/112 26/131/105
f 52/138/112 53/137/111 27/133/107
f 53/137/111 54/153/124 28/134/108
f 67/123/97 70/187/144 51/124/98
f 54/165/124 55/164/132 33/188/109
f 94/155/126 102/156/127 72/181/110
f 55/164/132 56/166/133 35/147/120
f 127/36/36 128/6/6 115/162/130
f 117/183/145 118/190/146 105/115/90
f 118/190/146 119/191/147 106/132/106
f 129/12/12 130/42/41 117/183/145
f 130/42/41 131/44/43 118/190/146
f 131/100/43 132/99/76 119/193/147
f 57/167/134 60/168/135 41/150/122
f 60/168/135 61/169/136 44/151/123
f 61/206/136 64/194/143 46/195/128
f 69/207/62 20/208/68 21/9/9
f 15/17/17 22/10/10 75/18/18
f 68/8/8 69/207/62 21/9/9
f 69/207/62 18/209/64 20/208/68
f 18/209/64 71/210/66 20/208/68
